<?xml version="1.0" standalone="no"?>
<!DOCTYPE svg PUBLIC "-//W3C//DTD SVG 20010904//EN"
 "http://www.w3.org/TR/2001/REC-SVG-20010904/DTD/svg10.dtd">
<svg version="1.0" xmlns="http://www.w3.org/2000/svg"
 width="1024.000000pt" height="1024.000000pt" viewBox="0 0 1024.000000 1024.000000"
 preserveAspectRatio="xMidYMid meet">
<metadata>
Created by potrace 1.11, written by Peter Selinger 2001-2013
</metadata>
<g transform="translate(0.000000,1024.000000) scale(0.100000,-0.100000)"
fill="#000000" stroke="none">
<path d="M4837 10049 c-984 -81 -1894 -610 -2449 -1424 -308 -452 -475 -896
-560 -1495 -9 -65 -13 -902 -15 -3512 l-3 -3428 3295 0 3295 0 -3 3428 c-2
2610 -6 3447 -15 3512 -39 272 -78 449 -148 662 -156 479 -411 898 -769 1267
-564 580 -1299 926 -2109 991 -146 11 -373 11 -519 -1z m568 -310 c515 -49
1022 -241 1445 -548 618 -447 1046 -1114 1189 -1851 27 -136 49 -329 53 -455
l3 -100 -2990 0 -2990 0 3 100 c16 530 192 1072 494 1525 118 177 201 281 338
424 255 265 537 469 865 627 497 239 1030 332 1590 278z m-495 -3264 c0 -5
-1191 -2348 -1197 -2355 -7 -8 -137 65 -258 146 -462 306 -853 765 -1074 1261
-127 284 -218 611 -246 886 l-7 67 1391 0 c765 0 1391 -2 1391 -5z m3165 -62
c-11 -112 -52 -320 -89 -454 -188 -684 -634 -1298 -1231 -1693 -121 -81 -251
-154 -258 -146 -6 7 -1197 2350 -1197 2355 0 3 626 5 1391 5 l1391 0 -7 -67z
m-2411 -1321 c306 -601 556 -1097 556 -1101 0 -24 -316 -123 -520 -164 -218
-44 -310 -52 -595 -52 -285 0 -377 8 -595 52 -204 41 -520 140 -520 164 0 10
1113 2200 1116 2196 2 -1 253 -494 558 -1095z m-3487 156 c268 -509 637 -921
1108 -1235 84 -56 255 -158 278 -166 11 -3 -1433 -2856 -1445 -2857 -5 0 -8
983 -8 2185 0 1202 2 2185 4 2185 2 0 31 -51 63 -112z m5923 -2073 c0 -1202
-3 -2185 -7 -2185 -13 1 -1457 2854 -1446 2857 23 8 194 110 278 166 471 314
840 726 1108 1235 32 61 61 112 63 112 2 0 4 -983 4 -2185z m-4122 489 c370
-134 719 -194 1127 -194 409 0 757 60 1129 195 70 25 130 44 132 42 6 -5 1634
-3208 1634 -3213 0 -2 -1303 -4 -2896 -4 -1709 0 -2894 4 -2892 9 9 26 1632
3211 1635 3211 2 0 61 -21 131 -46z"/>
</g>
</svg>
